<?xml version="1.0" encoding="utf-8"?>
<!-- Generator: Adobe Illustrator 25.3.1, SVG Export Plug-In . SVG Version: 6.00 Build 0)  -->
<svg version="1.1" id="Layer_1" xmlns="http://www.w3.org/2000/svg" xmlns:xlink="http://www.w3.org/1999/xlink" x="0px" y="0px"
	 viewBox="0 0 570.1 611.7" style="enable-background:new 0 0 570.1 611.7;" xml:space="preserve">
<style type="text/css">
	.st0{fill:#FFFFFF;}
	.st1{fill:#F4F4F4;}
</style>
<path class="st0" d="M18.5,425.8c2.9-28.2,9.7-61.2,12.6-82.6c2.9-21.4,10.7-73.4,24.3-79.5S96.2,248,106,248.5
	c9.7,0.5,20.5,0,20.5,0l-12.7-7.7c0,0-2.9,9.4-8.7,0c-5.8-9.4,1.2-1.5-5.8-9.4s-24-3.6-24-3.6l-11.9-4.1c-7.6-5.4-7.1-12.8-6-17
	s8-13.1,8-13.1l7.2-4.8l6.5-4.7c0,0,1.5,0-6.5-5.6s-10.3-9.7-9.2-22c1.1-12.2,17.7-12,17.7-12s41.2-5.1,52.4-4.1
	c11.2,1.1,24.9,4.1,24.9,4.1s18.9,15.9,26.8,22.7c7.9,6.8,21,13.2,21,13.2s15.8-12,18.4-23.9c2.6-11.9,12.1-60.3,14.7-70.3
	c2.6-10,17.3-18.4,17.3-18.4l16.9-6.3c0,0,60.3-16.8,74.1-14.7c13.8,2.1,44.9,24.7,53.8,31c8.9,6.3,13.7,26.8,13.7,26.8
	s30-17.4,36.8-5.3c6.8,12.1,14.7,42.1,13.2,50.5c-1.6,8.4-5.8,14.2-7.9,25.5s-11.6,18.2-11.6,18.2l-19.5,11.5l-14.5,12.6l-4.5,11.6
	l-1.1,6.8c0,0,37.9,12.7,45.8,12.7c7.9,0,33.7,3.7,33.7,3.7l26.3,11.2v18.8v33.1l-4.7,14.2c0,0-14.2,108.4-14.7,114.7
	c-0.5,6.3-2.6,35.3-2.6,35.3s-2.6,12.1-3.2,18.4c-0.5,6.3-4.9,17.4-4.9,17.4l-13.8,13.2c0,0-25.5,18.4-49.7,17.4
	c-24.2-1.1-164.2,1.1-172.1,0s-126.8,5.7-144.2,4.7s-68.2-5-76.7-15.7c-8.5-10.6-11.1-47.5-11.1-58S18.5,425.8,18.5,425.8z"/>
<path class="st1" d="M43.7,292.6c-2.9,8,47.7,54.4,60.3,69c12.6,14.6,76.8,60.2,91.3,75.8s66.7,33,78.1,28.2
	c11.3-4.9,66.7-32.1,79.4-46.6c12.6-14.6,60.2-56.4,71.9-65.1c11.7-8.7,33-26.2,36.9-32.1c3.9-5.8,39.7-27.1,39.4-27.4
	c-0.3-0.4,6.3-21.2,6.3-21.2s-14.3-10.8-20.4-9.5c-6.1,1.3-22.4,14.4-26.2,15.3c-3.9,1-17.5,12.3-28.2,19.8
	c-10.7,7.4-35.5,27.8-35.5,27.8l-57.8,43.7l-40.1,19.8c0,0-34.7,27.8-49.3,24.9c-14.6-2.9-49.6-26.2-57.3-34s-75.8-67.1-81.6-72.9
	S86.5,283.9,83.6,281c-2.9-2.9-20.4-17.3-20.4-17.3S46.5,284.8,43.7,292.6z"/>
<path class="st1" d="M337.4,240.8c11.7-5.4,31.5-25.8,31.5-25.8l2.8-12.3v-12.3V178c0,0,2.1-9.1,0-13.3c-2.1-4.2,13,0.7,16.3,0
	c3.3-0.7,13.1-1.7,13.1-1.7l2.8-16.1c0,0,2.1-17.1,16.1-27.6c14-10.5,21-16.1,30.8-11.2c9.8,4.9,17.2,21.7,17.2,21.7v14.8l-3.3,15.4
	c0,0,0.7,9.6-8.4,19.4s-15.4,16.1-15.4,16.1L422,210.1l-10.4,16.1c0,0-2.5,4.5-5.5,9.9s-12.8,8.2-12.8,8.2l-18.9,4.2L337.4,240.8z"
	/>
<path d="M501.1,246.5c-0.3-0.2-0.6-0.5-1-0.7c-9.7-6.5-21.7-10.3-34.9-10.3c-31.7,0-63.3,0.5-94.8-2c-7-0.5-14.3,1.2-21.3,1.8
	c-8.2,0.7-16.8,2.3-25.1,1.7c-5.8-0.4-11-2.3-16.8-2.5c-16.9-0.6-33.9,2.4-50.8,1.5c-13.6-0.7-26.7-1.1-40.1-2.5
	c-5.8-0.6-11.1,0.6-16.9,1.1c-32.8,3.3-66.6,0.8-99.6,0.8c-17.9,0-35.1,6.9-48.7,18.3c-0.5,0.4-0.9,0.7-1.4,1.2
	c-14.3,12.5-24.4,29.9-26.8,49.2c-3.6,29.8-9.1,59-10.5,88.9c-1,20.8-5.3,42-7.8,62.7c-1.4,11.6-2.8,23.1-4.2,34.7
	c-2.3,19.3,3.6,36.8,15,49.2c0.1,0.1,0.2,0.2,0.2,0.3c0.2,0.3,0.5,0.5,0.8,0.8C27.4,552,42.9,559,60.8,559c28.7,0,57.3,1.2,85.9,1.1
	c11.2-0.1,22.2-3.1,33.5-2.5c16.8,0.8,33.2,0.5,49.8-0.5c13.7-0.8,25.9,3.2,39.4,4c8.3,0.5,16.4-1.9,24.7-1.1
	c4.6,0.4,9.4,1.1,14,0.8c3.8-0.3,7.2-1.9,11.2-1.6c2.8,0.1,5.2,1,8.2,1c5.5,0.1,10.9-1.8,16.4-1.8c5.3,0,10.6,0.8,16,0.8
	c11.7,0,23.3,0,35,0c10.5,0,20.9,0,31.4,0c10.3,0,21.5-2.1,30.7-6.9c8-4.1,17.9-8.2,23.8-15.2c11.1-13.1,20.2-29.2,22.3-46.5
	c1.7-14.4,3.5-28.9,5.2-43.3c2.9-24.3,3.8-48.9,8.2-72.7c1.3-7,2.2-13.9,3.1-20.9c2.2-16.6,3.9-32.8,5.9-49.3
	C528.4,280,518.5,258.8,501.1,246.5z M462.2,260.4c2,0,3.9,0.1,5.7,0.4c-24.3,18.6-47.3,39-73.7,54.2c-13.7,7.9-24.8,18-37.3,27.7
	c-6.6,5.1-11.3,11.7-18.1,16.3c-13.9,9.4-26.4,20.9-39.7,31.1c-22.7,17.4-53.1,17.9-72.3,1.4c-8-6.9-16.1-13.8-24.1-20.8
	c-15.2-13.1-32.2-24.8-46-39.5c-15.5-16.5-34.9-30.3-52.1-45.1c-2.1-1.8-23.2-23.1-25.7-22.1c5.6-2.3,11.7-3.7,17.9-3.7H462.2z
	 M63.8,534.1c-15.5-0.5-11.4-13.8-2.6-21.5c9.6-8.4,20.1-15.5,29.8-24.2c14.1-12.6,28.2-25.2,42.3-37.8c5.4-4.9,6.4-12.7,2.1-17.6
	c-4.3-4.9-12.2-4.9-17.6,0c-10.8,9.7-21.7,19.3-32.5,29c-9.1,8.1-18.2,16.2-27.2,24.3c-6.4,5.7-16.8,20.1-26.3,16.9
	c-6.2-2-7.2-7.1-6.5-12.9l22.5-186.2c1-8.7,4.6-16.7,9.7-23.5c-0.6,0.8,73.4,63.6,79.6,69.7c4.5,4.4,8.5,9.3,13.6,12.7
	c20.9,13.9,39.3,31.8,58.3,48.2c13.4,11.5,30.6,17.3,48.4,17.3c18.9,0,38.6-6.4,55.3-19.3c10.5-8,20.9-16,31.4-24.1
	c20-15.3,42-29.3,60.3-46.6c7.9-7.5,18.1-13.1,26.5-19.9c9.9-8,20.3-15.6,30.5-23.3c9.8-7.5,19.7-15.1,29.5-22.6
	c7.3,8,11.1,19.1,9.6,31.4c0,0-22.5,186.2-22.5,186.2c-0.7,6.2-0.2,16.7-8.2,17.1c-5.1,0.3-11.9-3.8-15.1-7.5
	c-8-9.4-16.3-18.6-24.5-27.8c-11.5-13-22.9-26.1-34.4-39.1c-4.3-4.9-12.2-4.9-17.6,0c-5.4,4.9-6.4,12.7-2.1,17.6
	c8.5,9.7,17,19.3,25.5,29c7.1,8,14.1,16,21.2,24.1c5.2,6,16.4,16.5,17.6,24.5c1.6,10.9-19.2,5.9-24.3,5.9c-29.1,0-58.3,0-87.4,0
	c-41.3,0-82.6,0-123.9,0c-35.3,0-70.6,0-105.9,0c-9.7,0-19.4,0-29.2,0c-1.9,0-3.8,0-5.7,0C64.1,534.1,64,534.1,63.8,534.1z"/>
<path d="M256.5,272.9c-14.2,1.2-37.6-1.4-48.1-13.4c-10.5-12-9-30.7,4.7-45.3s29.8-24,53-19.3c23.2,4.7,36.2,7.5,42.2,22.2
	c6,14.7,2.3,39.3-3.9,45S280.2,271,256.5,272.9z"/>
<path d="M490.1,280.7c-8.6-11.3-18.9-32.5-14.4-47.8s21.1-24,40.8-20.3c19.7,3.7,36.2,12.3,44.7,34.4s13,34.6,3.9,47.6
	c-9.2,13-32,22.9-40.1,20.8C516.9,313.2,504.4,299.6,490.1,280.7z"/>
<path d="M479.7,115.5c-5.9-22.3-22.5-41.1-60.4-15.5c-8.8-51.6-66.6-65.4-66.6-65.4c6.4-12,1.8-25.9-4.9-31.2
	c-6.7-5.3-33.7-10.2-39.4,31C296.5,5,245,1.7,246,64c-22,11.5-20.5,38.9-21.7,61.1c-1.2,22.1-8.5,42.5-15.9,51.2
	c-13.9-2.7-35.6-25.4-47.2-35.8c-11.6-10.4-48.1-13-74.1-5.5c-26,7.5-31.7,14.3-30.5,25.5c1.1,11.1,18.3,19.5,18.3,19.5
	c-27.9,12.2-34.3,34.8-30,45.3c4.3,10.5,41,11,48.4,8.4c-2.2,8.5,1.6,13.6,5.9,14.5c4.4,0.9,73.1,2.9,73.1,2.9s51.4-57.7,60.3-94
	c8.9-36.3,7.5-63.7,21-75.4c7.6,21.2,51,37.9,57.7-22.4c45.4-9,91.4,8.7,101.2,54c13.8-11,25.3-13.3,25.3-13.3
	c-3.8,34.4,22.8,35.6,22.8,35.6c-1.5,23.8-14.6,45.1-33.3,53.8c-18.7,8.7-25.6,13.9-25.7,25c-0.1,11.1-0.2,19.1-5.6,21.7
	c-5.4,2.7-12.6,12.3-12.3,17.2c0.2,4.9,10.2,9.5,12.8,3.5c2.7-6,8.2-9.4,14-13.6c5.8-4.3,7-5.2,8.8-13.8c1.7-8.6,8-15,18.2-18.9
	c10.2-3.9,25-10.9,32.4-28.9C477.3,163.5,485.5,137.9,479.7,115.5z M65.7,161.8c-2.4-8.2,6.6-12.1,18.4-14.2
	c11.8-2.1,50.2-3.9,60.7-2.7c10.5,1.3,30,17.8,42.8,28.7c0,0-15.8-9.4-33.3-16.9c-17.5-7.6-33.5-3.6-73.7,18.7
	C80.5,175.4,68.1,170,65.7,161.8z M191.4,204.1c-28.7-5.1-32-8.8-39-11.5c-7-2.7-10.7-1.8-9.5,2.3c1.3,4.1,15.8,10.7,37.3,18.6
	c-3.9,10.9-11.8,21.8-11.8,21.8s-3.9,3.3-4.8,3.6c-0.9,0.3-19.3,0.6-23.3,0c-3.9-0.6-14,4.3-11.1,0.3c2.9-4,4.4-5.5,3.8-6.7
	c-0.6-1.2-2.7-3-2.7-3s-3.9,1.5-5.7,1.5c-1.8,0-5.4,1.5-5.4,1.5s-10,3.6-13.3-0.6c-3.3-4.2,4.5-10.9,4.5-10.9s-13.3,2.7-24.2,2.7
	s-22.1,0.7-23-10.5c-0.9-11.2,24.6-23.8,47-37.5c22.5-13.7,31.2-19.1,93.2,9.9C200.7,193.9,191.4,204.1,191.4,204.1z"/>
<path d="M409.5,133.7c-7.9-37.9-25.5-52.1-36.8-50c-11.3,2.1-27.2,10.7-24.9,42.8c2.3,32.1,6,66.8,31.4,64.4
	C402.1,188.8,417.4,171.6,409.5,133.7z M396.8,146.9c-0.6,3.5-1,9.7-7.7,9.7c-5.5,0-11.7-4.6-9.7-10.5c2-5.9,4.6-9.3,9.7-8.7
	C394.2,137.8,397.5,143.3,396.8,146.9z"/>
</svg>
