<?xml version="1.0" encoding="utf-8"?>
<!-- Generator: Adobe Illustrator 25.2.3, SVG Export Plug-In . SVG Version: 6.00 Build 0)  -->
<svg version="1.1" id="Layer_2_1_" xmlns="http://www.w3.org/2000/svg" xmlns:xlink="http://www.w3.org/1999/xlink" x="0px" y="0px"
	 viewBox="0 0 205.8 205.8" style="enable-background:new 0 0 205.8 205.8;" xml:space="preserve">
<path d="M165.8,76.5c-5.2-3.3-19.6,6.3-21.9,17.1c-2.3,10.8,9.5,13.4,17.8,4.2C170.1,88.7,170.2,79.3,165.8,76.5z M156.2,96.4
	c-2.8-1,0.3-5.2,2.7-4.1C161.2,93.5,159.3,97.6,156.2,96.4z"/>
<path d="M102.9,0C46.1,0,0,46.1,0,102.9s46.1,102.9,102.9,102.9s102.9-46.1,102.9-102.9S159.7,0,102.9,0z M102.9,198.7
	c-52.9,0-95.8-42.9-95.8-95.8C7.1,50,50,7.1,102.9,7.1s95.8,42.9,95.8,95.8C198.7,155.8,155.8,198.7,102.9,198.7z"/>
<path d="M172.9,90.4c6.1-9.8,4.2-22-0.2-27.9c6.3-2.4,6.8-6.5,4.4-10.3c-2.4-3.8-9.4-2.6-13.7,0.9c2.4-8.5-5.3-20.5-19.4-7
	c-12.6-0.9-19.4,14.4-31.7,15.7c-3-5.9-2.2-12.8-2.3-16.9c-0.1-4.2-7.5-13.9-15.1-17.8s-13.8-4.7-11.5,7.2c-8-3.4-27.4,1.2-7.5,15.2
	c-2.2,1.2-1,6.4,4.1,8c-3.8,1.4-1,4.5,4.5,5.3c-2.2,1.2-0.1,3.3,1.2,4.4c-14.8,2.7-31.7,6.7-41,14.4c-18,15-14.2,27.2-5.4,42.6
	c1.8,3.1-11.9,11.1-11.3,22.8s10.5,30.6,26.1,19.3c8.1,4.2,16.1-3.2,13.6-10.5c-2.5-7.4-0.4-14.2,3.4-16.4c9.4,6.3,23-1.4,23-1.4
	c0,6.7-5.9,12-5.2,17.2c0.8,5.3,7.2,15,24.9,5.8c8.3,1,15.9-13.2,9-30.4c7.4-0.2,9-5.3,10.4-9.3s6.3-3,8.9-2.4
	c2.6,0.5,5.3-4.7,7.9-2.6c2.6,2.1,13.6,6.4,26.1-3.4C188.8,103.2,185.7,92.4,172.9,90.4z M86.4,27.3c2.9-1.3,13.3,8,17.4,13
	c4.1,5.1,3.6,9.2,4.6,16.6c-1.8-3.6-2.7-13.9-7.8-16.5c-5.1-2.6-14.9-5.5-14.9-5.5S83.5,28.6,86.4,27.3z M87.8,135.7
	c-9.1,2.5-12.2-5-18.9-3.2c6.6-11.7,5.4-18.7,3-19.5s-0.3,7.1-4.1,2.9c-3.8-4.1-7.4-7.2-15.4-8S38.1,93.1,50,85.8
	s33.1-12.7,33.1-12.7c2.9,11.3-7.5,24.4-5.5,36.6S88.6,127.7,87.8,135.7z M102.9,64.1c-4.7-3.9-5.1-11.6-7.1-12.2s-1.5,0.7-1,2.6
	s1.9,6.5,4.6,10.3c-3.9,0.7-8.5,1.4-13.3,2.3c-0.5-1.2-1.2-3.3,1.2-4.2c-2.5-1.9-5.2-1.7-5.5-3.6c-0.3-1.8,2.7-0.6,2.8-2.1
	s-4.6-1.5-5.5-4.4s3.3-2.4,3.3-2.4S72,44.4,73,40.1s13.7-0.4,21.3,1.5c12.2,3.1,9.3,15.1,15.1,21.1
	C107.6,63.2,105.5,63.6,102.9,64.1z M115.7,156.8c3.8-8.5,4.6-19.3,3.5-24.3C123.7,138.2,120.4,152.2,115.7,156.8z M174.1,106.6
	c-11.7,10.8-22.5,0.6-28,3.5c-5.4,2.9-4.8,4.5-10.8,4.3c-6.1-0.2-4.3,12.4-10.9,13.6c-3.5,0.6,1.1-6.6-2.2-16.8
	c-3.4-10.2-7.7-14.8-7.5-21.9s0-25.2,0-25.2c12.4,0.4,16.3-12.4,27.2-12.7c-3.6,9.7,6.2,16.9,16.9,7.5c13.6,9.7,15.9,21.5,9.9,32.8
	c6.3,0.4,8.9,3.2,8.9,3.2C168.7,100.1,174.1,106.6,174.1,106.6z"/>
<g>
	<path d="M183,200.8c-6.2,0-11.3-5.1-11.3-11.3c0-6.2,5.1-11.3,11.3-11.3s11.3,5.1,11.3,11.3C194.3,195.7,189.2,200.8,183,200.8z
		 M183,180.1c-5.2,0-9.4,4.2-9.4,9.4s4.2,9.4,9.4,9.4s9.4-4.2,9.4-9.4S188.2,180.1,183,180.1z"/>
	<g>
		<path d="M183.1,193.4c0.6,0,1.2-0.1,1.6-0.3c0.5-0.2,0.9-0.6,1.4-1l1.2,1.2c-1.1,1.3-2.5,1.9-4.2,1.9c-1.6,0-3-0.5-4.1-1.6
			c-1.1-1.1-1.6-2.4-1.6-4s0.6-3,1.7-4c1.1-1.1,2.5-1.6,4.2-1.6c1.7,0,3.1,0.6,4.2,1.9l-1.2,1.3c-0.5-0.5-1-0.8-1.5-1
			c-0.5-0.2-1-0.3-1.6-0.3c-1.1,0-2,0.4-2.8,1.1c-0.7,0.7-1.1,1.6-1.1,2.7c0,1.1,0.4,2,1.1,2.8C181.2,193,182.1,193.4,183.1,193.4z"
			/>
	</g>
</g>
</svg>
