<?xml version="1.0" encoding="utf-8"?>
<!-- Generator: Adobe Illustrator 25.2.3, SVG Export Plug-In . SVG Version: 6.00 Build 0)  -->
<svg version="1.1" id="Layer_2" xmlns="http://www.w3.org/2000/svg" xmlns:xlink="http://www.w3.org/1999/xlink" x="0px" y="0px"
	 viewBox="0 0 960 889" style="enable-background:new 0 0 960 889;" xml:space="preserve">
<style type="text/css">
	.st0{opacity:0.2;fill:#FFFFFF;}
	.st1{opacity:0.2;}
	.st2{fill:#FFFFFF;}
</style>
<path class="st0" d="M459.2,340c139.7,0,255.6,71.6,255.6,211.3S561.5,861.4,459.2,861.4S203.6,691,203.6,551.3S319.5,340,459.2,340
	"/>
<g class="st1">
	
		<ellipse transform="matrix(0.9942 -0.1075 0.1075 0.9942 -18.7352 37.3076)" class="st2" cx="336.7" cy="192.4" rx="87.8" ry="105.4"/>
	
		<ellipse transform="matrix(0.9039 -0.4278 0.4278 0.9039 -109.274 83.4675)" class="st2" cx="131.1" cy="284.9" rx="87.8" ry="105.4"/>
	
		<ellipse transform="matrix(0.1075 -0.9942 0.9942 0.1075 327.9341 750.1559)" class="st2" cx="581.8" cy="192.4" rx="105.4" ry="87.8"/>
	
		<ellipse transform="matrix(0.4278 -0.9039 0.9039 0.4278 193.0249 874.6852)" class="st2" cx="787.4" cy="284.9" rx="105.4" ry="87.8"/>
</g>
</svg>
