<?xml version="1.0" encoding="utf-8"?>
<!-- Generator: Adobe Illustrator 25.2.3, SVG Export Plug-In . SVG Version: 6.00 Build 0)  -->
<svg version="1.1" id="Layer_2" xmlns="http://www.w3.org/2000/svg" xmlns:xlink="http://www.w3.org/1999/xlink" x="0px" y="0px"
	 viewBox="0 0 960 889" style="enable-background:new 0 0 960 889;" xml:space="preserve">
<style type="text/css">
	.st0{opacity:3.000000e-02;}
</style>
<path class="st0" d="M494.8,279.2c144.6,0,264.6,74.1,264.6,218.7s-158.7,321-264.6,321s-264.6-176.4-264.6-321
	S350.1,279.2,494.8,279.2"/>
<g class="st0">
	<ellipse transform="matrix(0.9942 -0.1075 0.1075 0.9942 -11.457 40.2819)" cx="367.9" cy="126.4" rx="90.9" ry="109.1"/>
	<ellipse transform="matrix(0.9039 -0.4278 0.4278 0.9039 -80.1177 87.6961)" cx="155.1" cy="222.1" rx="90.9" ry="109.1"/>
	<ellipse transform="matrix(0.1075 -0.9942 0.9942 0.1075 429.1416 730.8592)" cx="621.6" cy="126.4" rx="109.1" ry="90.9"/>
	<ellipse transform="matrix(0.4278 -0.9039 0.9039 0.4278 276.7018 881.3392)" cx="834.5" cy="222.1" rx="109.1" ry="90.9"/>
</g>
</svg>
